<svg width="28" height="28" viewBox="0 0 28 28" fill="none" xmlns="http://www.w3.org/2000/svg">
<g id="FAQ">
<g id="Vector">
<path d="M25.9408 5.93836C25.7425 5.74003 25.4741 5.63503 25.1941 5.63503H23.9108V17.9434C23.9108 18.5384 23.6775 19.0984 23.2575 19.5067C22.8375 19.9267 22.2775 20.16 21.6941 20.16H6.83081L5.25581 21.3967C5.25581 21.665 5.37247 21.9334 5.55914 22.12C5.75747 22.3184 6.02581 22.4234 6.30581 22.4234H22.9541L26.2558 25.8067V6.68503C26.2558 6.40503 26.1508 6.13669 25.9525 5.93836H25.9408Z" fill="#3FBAEE"/>
<path fill-rule="evenodd" clip-rule="evenodd" d="M6.42247 18.9934L1.74414 22.6684V3.24336C1.74414 2.96336 1.84914 2.69503 2.04747 2.49669C2.24581 2.29836 2.51414 2.19336 2.79414 2.19336H21.6941C21.9741 2.19336 22.2425 2.29836 22.4408 2.49669C22.6391 2.69503 22.7441 2.96336 22.7441 3.24336V17.9434C22.7441 18.2234 22.6391 18.4917 22.4408 18.69C22.2425 18.8884 21.9741 18.9934 21.6941 18.9934H6.42247ZM8.63914 8.29503L10.7041 8.70336C10.7625 8.41169 10.9025 8.14336 11.1125 7.92169C11.3225 7.70003 11.5791 7.54836 11.8708 7.47836C12.1625 7.40836 12.4658 7.42003 12.7458 7.51336C13.0258 7.60669 13.2825 7.78169 13.4691 8.01503C13.6558 8.24836 13.7725 8.52836 13.8191 8.82003C13.8541 9.11169 13.8075 9.41503 13.6791 9.68336C13.5508 9.95169 13.3525 10.185 13.0958 10.3367C12.8391 10.5 12.5475 10.5817 12.2558 10.5817H11.2058V12.6817H12.2558C12.9558 12.6817 13.6325 12.4834 14.2158 12.11C14.7991 11.7367 15.2775 11.2117 15.5691 10.5817C15.8725 9.95169 15.9775 9.25169 15.8958 8.56336C15.8141 7.87503 15.5341 7.22169 15.0908 6.68503C14.6475 6.14836 14.0641 5.74003 13.3991 5.53003C12.7341 5.30836 12.0341 5.28503 11.3575 5.44836C10.6808 5.61169 10.0741 5.97336 9.58414 6.47503C9.10581 6.97669 8.77914 7.60669 8.63914 8.29503ZM13.2941 13.7434H11.1941V15.8434H13.2941V13.7434Z" fill="#77D6FD"/>
</g>
</g>
</svg>
