<svg width="18" height="18" viewBox="0 0 18 18" fill="none" xmlns="http://www.w3.org/2000/svg">
<path d="M16.5 15.4539L11.52 10.4739C12.24 9.53641 12.6675 8.36641 12.6675 7.09141C12.6675 4.00141 10.1625 1.50391 7.08 1.50391C3.9975 1.50391 1.5 4.00141 1.5 7.08391C1.5 10.1664 3.9975 12.6639 7.08 12.6639C8.355 12.6639 9.525 12.2364 10.4625 11.5164L15.4425 16.4964L16.4925 15.4464L16.5 15.4539ZM7.08 11.1789C4.8225 11.1789 2.985 9.34141 2.985 7.08391C2.985 4.82641 4.8225 2.98891 7.08 2.98891C9.3375 2.98891 11.175 4.82641 11.175 7.08391C11.175 9.34141 9.3375 11.1789 7.08 11.1789Z" fill="white"/>
</svg>
