<svg width="100" height="100" viewBox="0 0 100 100" fill="none" xmlns="http://www.w3.org/2000/svg">
<g clip-path="url(#clip0_1074_31594)">
<path d="M49.9997 91.6668C26.9872 91.6668 8.33301 73.0127 8.33301 50.0002C8.33301 26.9877 26.9872 8.3335 49.9997 8.3335C73.0122 8.3335 91.6663 26.9877 91.6663 50.0002C91.6663 73.0127 73.0122 91.6668 49.9997 91.6668ZM49.9997 83.3335C58.8402 83.3335 67.3187 79.8216 73.5699 73.5704C79.8211 67.3192 83.333 58.8407 83.333 50.0002C83.333 41.1596 79.8211 32.6811 73.5699 26.4299C67.3187 20.1787 58.8402 16.6668 49.9997 16.6668C41.1591 16.6668 32.6807 20.1787 26.4294 26.4299C20.1782 32.6811 16.6663 41.1596 16.6663 50.0002C16.6663 58.8407 20.1782 67.3192 26.4294 73.5704C32.6807 79.8216 41.1591 83.3335 49.9997 83.3335ZM45.833 29.1668H54.1663V37.5002H45.833V29.1668ZM45.833 45.8335H54.1663V70.8335H45.833V45.8335Z" fill="#CAD0D7"/>
</g>
<defs>
<clipPath id="clip0_1074_31594">
<rect width="100" height="100" fill="white"/>
</clipPath>
</defs>
</svg>
