<svg xmlns="http://www.w3.org/2000/svg" width="196" height="36" viewBox="0 0 196 36">
    <g fill="none" fill-rule="evenodd">
        <path fill="#8EA8B8" d="M107.969 5.96c3.668 0 6.64 3.332 6.64 7.447 0 .22-.012.437-.028.653h-1.156v-.003h-10.911c.313 3.086 2.854 5.431 5.867 5.431 1.97 0 3.711-1.102 4.766-2.782l.998.785c-1.276 2.033-3.38 3.363-5.764 3.363-3.897 0-7.054-3.334-7.054-7.447 0-4.115 2.974-7.448 6.642-7.448zM95.288 1v4.958h4.843v1.298h-4.843v9.405c0 1.054.29 1.765.781 2.217.49.451 1.18.639 1.979.639.338 0 .65-.038.973-.12.326-.083.667-.214 1.056-.401v1.327c-.352.173-.695.302-1.061.388-.368.089-.75.132-1.185.132-1.068 0-2.036-.31-2.738-.972-.7-.656-1.132-1.667-1.132-3.065v-9.55h-2.003V5.958h2.003V1h1.327zM84.646 5.96c3.221 0 5.831 2.873 5.831 6.417v8.456H89.18v-8.528c0-2.792-2.024-5.053-4.525-5.053-2.499 0-4.525 2.261-4.525 5.053v8.536h-1.313v-8.464c0-3.544 2.61-6.417 5.83-6.417zm-9.33-.001v14.875H74V5.958h1.316zm90.927.026v14.85h-1.313V5.983h1.313zm-9.087-4.749v4.75h4.845v1.297h-4.845v9.368c0 1.052.29 1.767.78 2.217.492.452 1.182.64 1.98.64.34 0 .65-.038.975-.119.325-.084.661-.214 1.056-.401v1.325c-.352.173-.695.302-1.063.39-.366.087-.752.13-1.185.13-1.068 0-2.036-.31-2.735-.97-.704-.658-1.135-1.668-1.135-3.067V7.282h-2.001V5.985h2.001v-4.75h1.327zm-39.657 19.596V5.984h1.314v2.873c1.022-1.437 2.561-2.477 4.33-2.732.626-.088 1.238-.075 1.82.033V7.72c-.563-.176-1.175-.232-1.812-.151-2.485.322-4.339 2.662-4.339 5.246l.001-.063v8.08H117.5zm33.037-14.907v1.298h-3.903c-3.193 0-5.778 2.756-5.778 6.156s2.585 6.156 5.778 6.156c1.955 0 3.68-1.039 4.725-2.622l.988.741c-1.262 1.913-3.35 3.165-5.713 3.165-3.863 0-6.991-3.334-6.991-7.446 0-4.116 3.128-7.448 6.99-7.448h3.904zm38.824 0c3.667 0 6.64 3.333 6.64 7.449 0 .22-.012.437-.03.654h-1.154v-.004h-10.912c.314 3.086 2.855 5.43 5.867 5.43 1.973 0 3.712-1.102 4.766-2.782l.998.786c-1.274 2.032-3.379 3.362-5.764 3.362-3.896 0-7.054-3.334-7.054-7.446 0-4.116 2.973-7.448 6.643-7.448zm-81.391 1.333c-2.832 0-5.163 2.406-5.457 5.495h10.913c-.293-3.089-2.623-5.495-5.456-5.495zm81.39-.035c-2.832 0-5.163 2.407-5.456 5.497h10.913c-.293-3.09-2.624-5.497-5.456-5.497zM75.317 1v1.913H74V1h1.316zm90.927 0v1.913h-1.315V1h1.315zm-30.201 14.107v-2.311c-2.21 0-2.876.004-3.235.004-.36.002-.409.006-1.384.006-1.443 0-2.562.341-3.324.934-.76.592-1.162 1.438-1.162 2.448v.057c0 1.054.466 1.886 1.193 2.454.73.57 1.718.874 2.758.874 1.389 0 2.677-.454 3.617-1.24.942-.783 1.537-1.903 1.537-3.226m-4.393-9.181c.918 0 1.744.135 2.467.403.72.264 1.334.662 1.827 1.189.456.482.803 1.061 1.037 1.738.232.68.353 1.463.353 2.359V21h-1.28v-2.756c-.469.695-1.124 1.385-1.983 1.9-.862.517-1.93.856-3.226.856-1.265 0-2.58-.383-3.58-1.144-.997-.761-1.679-1.9-1.679-3.407v-.056c0-1.508.608-2.687 1.657-3.49 1.045-.804 2.536-1.23 4.297-1.23h4.513c0-1.466-.419-2.574-1.191-3.32-.773-.743-1.894-1.118-3.297-1.118-.825 0-1.579.12-2.284.326-.703.208-1.36.499-1.984.84l-.243-.613-.243-.611c.752-.37 1.493-.681 2.281-.904.789-.22 1.621-.347 2.558-.347zm39.064.058l5.18 13.043 5.176-13.043h1.5l-5.895 14.847h-1.616l-5.892-14.847h1.547z" transform="translate(0 8)" />
        <path fill="#3490AD" d="M18.77 0v21h-2.954V0h2.954zm-5.524 6.03v2.946H7.34c-2.452 0-4.442 1.993-4.442 4.455v.128c0 2.46 1.99 4.457 4.442 4.457h.082c1.522 0 2.864-.769 3.676-1.932l2.421 1.7c-1.346 1.928-3.573 3.189-6.097 3.189h-.078C3.288 20.973 0 17.676 0 13.607v-.21C0 9.328 3.288 6.03 7.344 6.03h5.902zm27.095.006v7.449c0 .62.115 1.206.347 1.758.23.553.55 1.033.958 1.443.408.409.881.73 1.422.96.54.234 1.117.347 1.735.347.617 0 1.2-.113 1.752-.347.55-.23 1.028-.551 1.436-.96.408-.41.728-.89.958-1.443.232-.552.348-1.139.348-1.758v-7.45h2.942v7.45c0 1.018-.193 1.978-.58 2.886-.385.905-.919 1.702-1.602 2.386-.682.686-1.472 1.222-2.362 1.608-.892.388-1.857.58-2.892.58-1.015 0-1.972-.192-2.875-.58-.905-.386-1.692-.922-2.364-1.608-.672-.684-1.2-1.48-1.587-2.386-.385-.908-.579-1.868-.579-2.886v-7.45h2.943zM28.137 18.04c-2.49 0-4.51-2.027-4.51-4.525 0-1.562.787-2.939 1.988-3.754.72-.486 1.587-.77 2.522-.77.051 0 .103.003.154.005 2.42.084 4.356 2.071 4.356 4.52 0 2.497-2.018 4.524-4.51 4.524m.255-11.992c-.085-.005-.17-.012-.255-.012-1.545 0-2.98.47-4.17 1.277-1.982 1.343-3.286 3.622-3.286 6.202 0 4.128 3.34 7.48 7.456 7.48 4.118 0 7.456-3.352 7.456-7.48 0-4.046-3.203-7.33-7.2-7.467m37.66 2.937v.014h.001v4.503c0 2.5-2.02 4.526-4.51 4.526-2.491 0-4.511-2.026-4.511-4.526 0-1.56.79-2.937 1.988-3.752.72-.488 1.589-.765 2.523-.765m-.001-2.95c-1.545 0-2.98.457-4.17 1.267-1.983 1.343-3.284 3.62-3.284 6.202 0 4.13 3.337 7.478 7.455 7.478 4.115 0 7.456-3.349 7.456-7.478v-7.47h-.002V0H66.052v6.035" transform="translate(0 8)" />
    </g>
</svg>