<svg width="108" height="108" viewBox="0 0 108 108" fill="none" xmlns="http://www.w3.org/2000/svg">
<path fill-rule="evenodd" clip-rule="evenodd" d="M37.4639 20.3313C33.8599 22.1017 30.481 24.4858 27.4834 27.4834C24.4857 30.4811 22.1017 33.86 20.3312 37.464L37.4639 20.3313ZM17.0024 47.8639C17.4432 45.192 18.1741 42.5586 19.195 40.0144L40.0144 19.1951C42.5585 18.1741 45.1919 17.4433 47.8639 17.0024L17.0024 47.8639ZM16.5263 55.4111C16.4526 53.4432 16.5331 51.4705 16.7677 49.5128L49.5128 16.7677C51.4704 16.5332 53.4431 16.4527 55.411 16.5263L16.5263 55.4111ZM17.2969 61.7115C16.9542 60.0726 16.722 58.4152 16.6003 56.7513L56.7512 16.6004C58.4151 16.7221 60.0725 16.9543 61.7114 17.297L17.2969 61.7115ZM18.8872 67.1923C18.3549 65.7729 17.9116 64.3277 17.5573 62.8653L62.8653 17.5574C64.3276 17.9116 65.7728 18.3549 67.1922 18.8873L18.8872 67.1923ZM21.1122 72.0383C20.4269 70.7902 19.8179 69.5112 19.2853 68.2084L68.2083 19.2854C69.5112 19.818 70.7901 20.4269 72.0383 21.1123L21.1122 72.0383ZM23.8775 76.3442C23.0581 75.2425 22.307 74.106 21.6242 72.9406L72.9406 21.6242C74.106 22.3071 75.2424 23.0582 76.3441 23.8775L23.8775 76.3442ZM27.1321 80.1606C26.1887 79.1922 25.3082 78.1855 24.4903 77.1455L77.1454 24.4904C78.1854 25.3082 79.1922 26.1888 80.1605 27.1322L27.1321 80.1606ZM30.8543 83.5095C29.8143 82.6916 28.8076 81.8111 27.8392 80.8677L80.8676 27.8393C81.811 28.8076 82.6916 29.8144 83.5094 30.8544L30.8543 83.5095ZM35.0592 86.3757C33.8938 85.6928 32.7573 84.9417 31.6556 84.1223L84.1223 31.6557C84.9416 32.7574 85.6927 33.8938 86.3756 35.0592L35.0592 86.3757ZM39.7914 88.7145C38.4886 88.1819 37.2096 87.5729 35.9615 86.8876L86.8875 35.9615C87.5729 37.2097 88.1818 38.4886 88.7144 39.7915L39.7914 88.7145ZM45.1345 90.4425C43.6721 90.0882 42.2269 89.6449 40.8075 89.1126L89.1125 40.8076C89.6449 42.227 90.0882 43.6722 90.4424 45.1345L45.1345 90.4425ZM51.2485 91.3995C49.5846 91.2778 47.9272 91.0456 46.2883 90.7029L90.7028 46.2884C91.0455 47.9273 91.2777 49.5847 91.3994 51.2486L51.2485 91.3995ZM58.487 91.2321C56.5293 91.4667 54.5567 91.5472 52.5887 91.4735L91.4735 52.5888C91.5471 54.5567 91.4666 56.5294 91.2321 58.487L58.487 91.2321ZM67.9854 88.8048C65.4412 89.8257 62.8078 90.5566 60.1359 90.9974L90.9974 60.136C90.5565 62.8079 89.8257 65.4413 88.8047 67.9854L67.9854 88.8048ZM87.6685 70.5359C85.8981 74.1399 83.514 77.5188 80.5164 80.5164C77.5187 83.5141 74.1398 85.8981 70.5358 87.6686L87.6685 70.5359Z" fill="#F4F5F7"/>
<path d="M77.2783 73.4089H34.0283V32.6589H35.5283V71.9089H77.2783V73.4089Z" fill="#919EAB"/>
<path d="M46.0283 69.6589H38.4033V36.9089H46.0283V69.6589ZM39.9033 68.1589H44.5283V38.4089H39.9033V68.1589Z" fill="#919EAB"/>
<path d="M55.2658 69.6589H47.5158V49.4089H55.2658V69.6589ZM49.0158 68.1589H53.7658V50.9089H49.0158V68.1589Z" fill="#919EAB"/>
<path d="M64.3908 69.6589H56.6408V43.1589H64.3908V69.6589ZM58.1408 68.1589H62.8908V44.6589H58.1408V68.1589Z" fill="#919EAB"/>
<path d="M73.5033 69.6589H65.7533V51.9089H73.5033V69.6589ZM67.2533 68.1589H72.0033V53.4089H67.2533V68.1589Z" fill="#919EAB"/>
</svg>
