<svg width="28" height="28" viewBox="0 0 28 28" fill="none" xmlns="http://www.w3.org/2000/svg">
<path d="M6.50984 14.1182V10.5602L8.28317 12.3333L9.1815 11.4351L11.5498 13.8032L11.7482 13.6049L12.4948 12.8466L14.2098 11.1318L11.8415 8.76371L12.7398 7.86547L10.9665 6.09232L13.6148 3.44426C12.1448 1.96275 9.75317 1.96275 8.28317 3.44426L3.8265 7.90047L5.59984 9.67362H2.06484L1.1665 10.5719L5.62317 15.0281L6.5215 14.1298L6.50984 14.1182Z" fill="#74D5FD"/>
<path d="M18.5188 15.4513L15.8533 18.1147L23.3908 25.6566L26.0563 22.9932L18.5188 15.4513Z" fill="#74D5FD"/>
<path d="M26.3198 5.21741L22.9248 8.61206L21.0465 6.73392L24.4415 3.33928C23.8348 3.02431 23.1582 2.826 22.4348 2.826C20.0082 2.826 18.0365 4.79746 18.0365 7.22387C18.0365 7.73715 18.1415 8.2271 18.3048 8.68205L3.98984 22.9956L6.64984 25.667L20.9765 11.3651C21.4315 11.5284 21.9215 11.6334 22.4348 11.6334C24.8615 11.6334 26.8332 9.66195 26.8332 7.23554C26.8332 6.50061 26.6348 5.82402 26.3198 5.22908V5.21741Z" fill="#4BBBEB"/>
</svg>
