<svg width="22" height="26" viewBox="0 0 22 26" fill="none" xmlns="http://www.w3.org/2000/svg">
<path fill-rule="evenodd" clip-rule="evenodd" d="M11 0.166626V5.83663L12.715 9.31329L16.5533 9.86163L13.7767 12.5683L14.43 16.3833L11 14.5866V25.8333L18.385 20.91C19.3417 20.2683 20.135 19.405 20.6717 18.39C21.22 17.375 21.5 16.2433 21.5 15.0883V3.43329C21.5 3.16496 21.4067 2.90829 21.2433 2.69829V2.70996C21.08 2.49996 20.8467 2.35996 20.59 2.30163L19.6683 2.10329L19.1433 1.98663L11 0.166626Z" fill="#4BBBEB"/>
<path d="M1.41 2.30163C1.15333 2.35996 0.92 2.49996 0.756667 2.70996C0.593333 2.91996 0.5 3.17663 0.5 3.44496V15.0883C0.5 16.2433 0.78 17.375 1.32833 18.39C1.87667 19.405 2.65833 20.2683 3.615 20.91L8.81833 24.375L9.285 24.69L11 25.8333V14.5866L7.57 16.3833L8.22333 12.5683L5.44667 9.86163L9.285 9.31329L11 5.83663V0.166626L1.41 2.30163Z" fill="#74D5FD"/>
</svg>
