<svg width="346" height="240" viewBox="0 0 346 240" fill="none" xmlns="http://www.w3.org/2000/svg">
<path fill-rule="evenodd" clip-rule="evenodd" d="M312.939 55.8739H34.2754V36.6437C34.2754 32.4722 37.669 29.0901 41.8547 29.0901H305.36C309.546 29.0901 312.939 32.4722 312.939 36.6437V55.8739Z" fill="#4E5C93"/>
<path fill-rule="evenodd" clip-rule="evenodd" d="M53.8155 41.6653C53.8155 44.2833 51.699 46.4058 49.0881 46.4058C46.4776 46.4058 44.3613 44.2833 44.3613 41.6653C44.3613 39.0474 46.4776 36.9248 49.0881 36.9248C51.699 36.9248 53.8155 39.0474 53.8155 41.6653Z" fill="#FF7A46"/>
<path fill-rule="evenodd" clip-rule="evenodd" d="M71.4651 41.6653C71.4651 44.2833 69.3489 46.4058 66.738 46.4058C64.1275 46.4058 62.0112 44.2833 62.0112 41.6653C62.0112 39.0474 64.1275 36.9248 66.738 36.9248C69.3489 36.9248 71.4651 39.0474 71.4651 41.6653Z" fill="#FAAD14"/>
<path fill-rule="evenodd" clip-rule="evenodd" d="M89.115 41.6653C89.115 44.2833 86.9988 46.4058 84.3879 46.4058C81.7774 46.4058 79.6611 44.2833 79.6611 41.6653C79.6611 39.0474 81.7774 36.9248 84.3879 36.9248C86.9988 36.9248 89.115 39.0474 89.115 41.6653Z" fill="#BAE637"/>
<path fill-rule="evenodd" clip-rule="evenodd" d="M42.4362 240C37.7749 240 33.9956 236.623 33.9956 232.457V52.8459H312.674V232.457C312.674 236.623 308.895 240 304.233 240H42.4362Z" fill="#E4EBF7"/>
<path d="M291.322 69.123H129.954C128.097 69.123 126.591 70.6299 126.591 72.4886V223.124C126.591 224.983 128.097 226.49 129.954 226.49H291.322C293.18 226.49 294.686 224.983 294.686 223.124V72.4886C294.686 70.6299 293.18 69.123 291.322 69.123Z" fill="white"/>
<path d="M109.785 67.8711H54.8771C53.0195 67.8711 51.5137 69.3779 51.5137 71.2367V221.872C51.5137 223.731 53.0195 225.238 54.8771 225.238H109.785C111.643 225.238 113.148 223.731 113.148 221.872V71.2367C113.148 69.3779 111.643 67.8711 109.785 67.8711Z" fill="white"/>
<path d="M98.0008 130.475H67.1884C66.1332 130.475 65.2778 131.331 65.2778 132.387V137.115C65.2778 138.171 66.1332 139.027 67.1884 139.027H98.0008C99.056 139.027 99.9114 138.171 99.9114 137.115V132.387C99.9114 131.331 99.056 130.475 98.0008 130.475Z" fill="#597EF7"/>
<path d="M98.0298 146.752H67.1594C66.1202 146.752 65.2778 147.595 65.2778 148.635V153.162C65.2778 154.202 66.1202 155.045 67.1594 155.045H98.0298C99.069 155.045 99.9114 154.202 99.9114 153.162V148.635C99.9114 147.595 99.069 146.752 98.0298 146.752Z" fill="#AAC2FE"/>
<path d="M98.0298 163.029H67.1594C66.1202 163.029 65.2778 163.872 65.2778 164.912V169.439C65.2778 170.479 66.1202 171.322 67.1594 171.322H98.0298C99.069 171.322 99.9114 170.479 99.9114 169.439V164.912C99.9114 163.872 99.069 163.029 98.0298 163.029Z" fill="#FF7A46"/>
<path d="M98.0298 179.306H67.1594C66.1202 179.306 65.2778 180.149 65.2778 181.189V185.716C65.2778 186.756 66.1202 187.599 67.1594 187.599H98.0298C99.069 187.599 99.9114 186.756 99.9114 185.716V181.189C99.9114 180.149 99.069 179.306 98.0298 179.306Z" fill="#AAC2FE"/>
<path d="M241.473 184.315H145.1C143.862 184.315 142.858 185.319 142.858 186.558V186.567C142.858 187.806 143.862 188.811 145.1 188.811H241.473C242.711 188.811 243.715 187.806 243.715 186.567V186.558C243.715 185.319 242.711 184.315 241.473 184.315Z" fill="#597EF7"/>
<path d="M241.473 208.104H145.1C143.862 208.104 142.858 209.109 142.858 210.348V210.357C142.858 211.596 143.862 212.6 145.1 212.6H241.473C242.711 212.6 243.715 211.596 243.715 210.357V210.348C243.715 209.109 242.711 208.104 241.473 208.104Z" fill="#597EF7"/>
<path d="M275.092 195.583H145.1C143.862 195.583 142.858 196.588 142.858 197.827V197.836C142.858 199.075 143.862 200.08 145.1 200.08H275.092C276.33 200.08 277.334 199.075 277.334 197.836V197.827C277.334 196.588 276.33 195.583 275.092 195.583Z" fill="#597EF7"/>
<path d="M273.513 84.1482H147.343C144.866 84.1482 142.858 86.1573 142.858 88.6357V169.811C142.858 172.289 144.866 174.298 147.343 174.298H273.513C275.989 174.298 277.997 172.289 277.997 169.811V88.6357C277.997 86.1573 275.989 84.1482 273.513 84.1482Z" fill="#597EF7"/>
<path d="M83.415 113.013C91.9592 113.013 98.8857 106.004 98.8857 97.3568C98.8857 88.71 91.9592 81.7004 83.415 81.7004C74.8708 81.7004 67.9443 88.71 67.9443 97.3568C67.9443 106.004 74.8708 113.013 83.415 113.013Z" fill="#FAAD14"/>
<path d="M83.4149 113.013C87.8739 113.016 92.1056 111.022 94.9744 107.568C92.714 103.225 88.2627 100.506 83.4125 100.506C78.5623 100.506 74.111 103.225 71.8506 107.568C74.7209 111.023 78.9544 113.016 83.4149 113.013Z" fill="#4E5C93"/>
<path d="M83.4971 101.129C86.7106 101.129 89.3156 98.4928 89.3156 95.2408C89.3156 91.9888 86.7106 89.3525 83.4971 89.3525C80.2837 89.3525 77.6787 91.9888 77.6787 95.2408C77.6787 98.4928 80.2837 101.129 83.4971 101.129Z" fill="#4E5C93"/>
<path d="M144.109 116.076H278.426" stroke="white" stroke-width="1.76674" stroke-linecap="round" stroke-linejoin="round"/>
<path d="M174.14 174.298V83.6272" stroke="white" stroke-width="1.76674" stroke-linecap="round" stroke-linejoin="round"/>
<path d="M210.427 174.298V83.6272" stroke="white" stroke-width="1.76674" stroke-linecap="round" stroke-linejoin="round"/>
<path d="M245.463 174.298V83.6272" stroke="white" stroke-width="1.76674" stroke-linecap="round" stroke-linejoin="round"/>
<path d="M144 146H278.317" stroke="white" stroke-width="1.76674" stroke-linecap="round" stroke-linejoin="round"/>
<path fill-rule="evenodd" clip-rule="evenodd" d="M293.519 0C272.228 0 254.968 17.2709 254.968 38.5757C254.968 59.8804 272.228 77.1514 293.519 77.1514C314.811 77.1514 332.071 59.8804 332.071 38.5757C332.071 17.2709 314.811 0 293.519 0Z" fill="#7CB305"/>
<path fill-rule="evenodd" clip-rule="evenodd" d="M287.307 51.6796L284.874 49.2442L308.459 25.5579C309.265 24.7509 310.573 24.7509 311.379 25.5579L312.353 26.5321C313.159 27.3391 313.159 28.6476 312.353 29.4547L290.228 51.6796C289.422 52.4867 288.114 52.4867 287.307 51.6796Z" fill="white"/>
<path fill-rule="evenodd" clip-rule="evenodd" d="M292.658 49.2441L290.224 51.6795C289.418 52.4866 288.11 52.4866 287.303 51.6795L277.612 41.9817C276.805 41.1747 276.805 39.8662 277.612 39.0592L278.585 38.085C279.392 37.278 280.699 37.278 281.506 38.085L292.658 49.2441Z" fill="white"/>
<path fill-rule="evenodd" clip-rule="evenodd" d="M42.5105 185.953H23.6787V121.392C23.6787 116.253 27.8723 112.087 33.0454 112.087H33.1437C38.3168 112.087 42.5105 116.253 42.5105 121.392V185.953Z" fill="#BAE637"/>
<path fill-rule="evenodd" clip-rule="evenodd" d="M51.8748 201.756H32.9883V168.043C32.9883 163.04 37.0893 158.985 42.1483 158.985H42.715C47.7738 158.985 51.8748 163.04 51.8748 168.043V201.756Z" fill="#389E0D"/>
<path fill-rule="evenodd" clip-rule="evenodd" d="M26.4412 185.919H7.42871V149.265C7.42871 144.234 11.5405 140.155 16.6125 140.155H17.2574C22.3294 140.155 26.4412 144.234 26.4412 149.265V185.919Z" fill="#7CB305"/>
<path fill-rule="evenodd" clip-rule="evenodd" d="M52.9985 239.466H3.53969C1.58475 239.466 0 237.896 0 235.961V187.276C0 185.341 1.58475 183.771 3.53969 183.771H52.9985C54.9534 183.771 56.5382 185.341 56.5382 187.276V235.961C56.5382 237.896 54.9534 239.466 52.9985 239.466Z" fill="#4E5C93"/>
<path d="M331.772 182.76C331.772 168.391 320.129 156.622 305.765 156.622C291.401 156.622 279.757 168.391 279.757 182.76C279.757 188.447 282.775 195.792 287.62 201.208C292.425 206.574 293.794 215.608 293.794 222.812V225.637H317.736V222.836C317.736 215.632 319.105 206.615 323.885 201.231C328.747 195.76 331.772 187.762 331.772 182.76Z" fill="#FFE58F"/>
<path d="M327.492 182.689C327.492 170.688 317.767 160.854 305.765 160.854C293.762 160.854 284.04 170.687 284.04 182.689C284.04 187.444 286.56 193.577 290.609 198.101C294.622 202.585 297.603 210.131 297.603 216.149V218.507H313.928V216.17C313.928 210.151 316.908 202.618 320.903 198.12C324.964 193.55 327.492 186.869 327.492 182.69V182.689Z" fill="#FAAD14"/>
<path d="M312.366 238.817H299.164C298.703 238.817 298.282 238.517 298.031 238.024L296.235 233.374H315.297L313.501 238.024C313.249 238.517 312.83 238.817 312.368 238.817H312.366Z" fill="#4E5C93"/>
<path d="M315.572 214.891H295.958C294.501 214.891 293.319 216.073 293.319 217.531V232.736C293.319 234.194 294.501 235.376 295.958 235.376H315.572C317.029 235.376 318.211 234.194 318.211 232.736V217.531C318.211 216.073 317.029 214.891 315.572 214.891Z" fill="#597EF7"/>
<path d="M293.352 220.82H307.375" stroke="white" stroke-width="1.24135" stroke-linecap="round" stroke-linejoin="round"/>
<path d="M293.352 229.927H307.375" stroke="white" stroke-width="1.24135" stroke-linecap="round" stroke-linejoin="round"/>
<path d="M304.107 225.373H318.13" stroke="white" stroke-width="1.24135" stroke-linecap="round" stroke-linejoin="round"/>
<path d="M307.539 172.255L297.735 187.198C297.208 188.008 297.775 189.004 298.725 189.004H303.117L297.717 199.21C297.315 200.035 298.353 200.801 298.99 200.148L313.674 185.386C314.423 184.618 313.891 183.305 312.831 183.305H306.191L308.969 172.906C309.186 172.019 308.033 171.498 307.539 172.255Z" fill="white"/>
</svg>
